<svg width="119" height="44" viewBox="0 0 119 44" fill="none" xmlns="http://www.w3.org/2000/svg">
<g clip-path="url(#clip0_789_2656)">
<path d="M37.7569 40.0107L35.5239 14.7107C35.3561 12.8049 33.7859 11.3667 31.8719 11.3667C31.4321 11.3667 31.0744 11.7242 31.0744 12.1642V16.1086C31.0744 16.4991 30.7792 16.8401 30.3896 16.8648C29.9624 16.8923 29.6077 16.5541 29.6077 16.1333V7.60833C29.6077 3.41275 26.1949 0 21.9994 0C17.8038 0 14.391 3.41275 14.391 7.60833V11.3667H12.1269C10.2129 11.3667 8.6426 12.8049 8.47485 14.7107L6.24185 40.0107C6.05394 42.1488 7.73996 44 9.89477 44H34.1039C36.259 44 37.9448 42.1485 37.7569 40.0107ZM17.7827 39.1417H12.466C12.061 39.1417 11.7327 38.8133 11.7327 38.4083C11.7327 38.0033 12.061 37.675 12.466 37.675H17.7827C18.1877 37.675 18.516 38.0033 18.516 38.4083C18.516 38.8133 18.1877 39.1417 17.7827 39.1417ZM17.7827 35.475H12.466C12.061 35.475 11.7327 35.1467 11.7327 34.7417C11.7327 34.3367 12.061 34.0083 12.466 34.0083H17.7827C18.1877 34.0083 18.516 34.3367 18.516 34.7417C18.516 35.1467 18.1877 35.475 17.7827 35.475ZM28.141 11.3667H18.1219C17.6819 11.3667 17.3244 11.7242 17.3244 12.1642V16.1086C17.3244 16.4991 17.0292 16.8401 16.6396 16.8648C16.2124 16.8923 15.8577 16.5541 15.8577 16.1333V7.60833C15.8577 4.22217 18.6132 1.46667 21.9994 1.46667C25.3855 1.46667 28.141 4.22217 28.141 7.60833V11.3667Z" fill="#DB3022"/>
</g>
<path d="M48.0182 33H56.6822C59.8262 33 62.0822 31.176 62.0822 28.536C62.0822 26.712 60.9782 25.176 59.0582 24.312C60.5222 23.544 61.3622 22.32 61.3622 20.64C61.3622 18.24 59.3222 16.512 56.3702 16.512H48.0182V33ZM51.5462 23.16V19.536H55.4822C56.8022 19.536 57.7382 20.304 57.7382 21.336C57.7382 22.392 56.8022 23.16 55.4822 23.16H51.5462ZM51.5462 29.976V25.944H56.0342C57.4502 25.944 58.4582 26.784 58.4582 27.96C58.4582 29.136 57.4502 29.976 56.0342 29.976H51.5462ZM64.5594 33H68.0634V16.224H64.5594V33ZM76.6659 20.304C74.9379 20.304 73.2339 20.784 71.4819 21.672L72.6579 24C73.6419 23.496 74.7219 23.112 75.8739 23.112C77.9139 23.112 78.7299 24.264 78.7299 25.584V25.824C77.6739 25.416 76.5699 25.2 75.5619 25.2C72.6819 25.2 70.4019 26.88 70.4019 29.328C70.4019 31.704 72.4419 33.288 75.0819 33.288C76.4259 33.288 77.8419 32.76 78.7299 31.752V33H82.1139V25.584C82.1139 22.344 79.9059 20.304 76.6659 20.304ZM75.8739 30.864C74.6739 30.864 73.7859 30.24 73.7859 29.232C73.7859 28.224 74.7939 27.48 76.0659 27.48C77.0259 27.48 77.9379 27.648 78.7299 27.936V29.088C78.4899 30.24 77.2179 30.864 75.8739 30.864ZM92.2433 20.304C90.6353 20.304 89.2433 21.024 88.4993 22.152V20.592H84.9953V33H88.4993V25.584L88.5233 25.656C88.5233 24.312 89.6513 23.256 91.1153 23.256C92.5073 23.256 93.4673 24.312 93.4673 25.848V33H96.8513V25.104C96.8513 22.296 94.9313 20.304 92.2433 20.304ZM101.561 18.888C102.593 18.888 103.433 18.024 103.433 16.968C103.433 15.984 102.593 15.096 101.561 15.096C100.481 15.096 99.6414 15.984 99.6414 16.968C99.6414 18.024 100.481 18.888 101.561 18.888ZM99.4254 37.272C101.681 37.272 103.289 35.64 103.289 33.36V20.592H99.7854V33C99.7854 33.816 99.3054 34.392 98.6094 34.392C98.1774 34.392 97.6494 34.296 97.3134 34.176L96.9534 36.768C97.5534 37.056 98.5614 37.272 99.4254 37.272ZM111.893 20.304C110.165 20.304 108.461 20.784 106.709 21.672L107.885 24C108.869 23.496 109.949 23.112 111.101 23.112C113.141 23.112 113.957 24.264 113.957 25.584V25.824C112.901 25.416 111.797 25.2 110.789 25.2C107.909 25.2 105.629 26.88 105.629 29.328C105.629 31.704 107.669 33.288 110.309 33.288C111.653 33.288 113.069 32.76 113.957 31.752V33H117.341V25.584C117.341 22.344 115.133 20.304 111.893 20.304ZM111.101 30.864C109.901 30.864 109.013 30.24 109.013 29.232C109.013 28.224 110.021 27.48 111.293 27.48C112.253 27.48 113.165 27.648 113.957 27.936V29.088C113.717 30.24 112.445 30.864 111.101 30.864Z" fill="#DB3022"/>
<defs>
<clipPath id="clip0_789_2656">
<rect width="44" height="44" fill="white"/>
</clipPath>
</defs>
</svg>
